<svg t="1601905410833" class="icon" viewBox="0 0 1024 1024" version="1.1" xmlns="http://www.w3.org/2000/svg" p-id="2171" width="20" height="20">
    <path d="M874.026667 149.930667c199.936 199.936 199.936 524.16 0 724.053333-199.936 199.978667-524.16 199.978667-724.053334 0-199.936-199.893333-199.936-524.117333 0-724.053333 199.893333-199.893333 524.117333-199.893333 724.053334 0z" fill="#404040" p-id="2172"></path>
    <path d="M211.370667 812.586667c-165.973333-165.973333-165.973333-435.2 0-601.216a423.253333 423.253333 0 0 1 257.237333-122.282667v845.781333a423.253333 423.253333 0 0 1-257.28-122.282666z" fill="#F5F5F5" p-id="2173"></path>
    <path d="M555.392 934.869333V89.088a423.253333 423.253333 0 0 1 257.194667 122.282667c165.973333 165.973333 165.973333 435.242667 0 601.216a423.253333 423.253333 0 0 1-257.194667 122.282666z" fill="#404040" p-id="2174"></path>
</svg>